<svg width="33" height="33" viewBox="0 0 33 33" fill="none" xmlns="http://www.w3.org/2000/svg">
<g clip-path="url(#clip0_26_19)">
<path d="M16.5 2.75C20.8945 2.75 24.75 6.34975 24.75 10.4528C24.75 14.7056 21.3221 20.2593 16.5 27.8616C11.6779 20.2593 8.25 14.7056 8.25 10.4528C8.25 6.34975 12.1055 2.75 16.5 2.75ZM16.5 0C10.7277 0 5.5 4.67913 5.5 10.4528C5.5 16.225 10.2699 23.1165 16.5 33C22.7301 23.1165 27.5 16.225 27.5 10.4528C27.5 4.67913 22.2736 0 16.5 0V0ZM16.5 15.125C14.2216 15.125 12.375 13.2784 12.375 11C12.375 8.72163 14.2216 6.875 16.5 6.875C18.7784 6.875 20.625 8.72163 20.625 11C20.625 13.2784 18.7784 15.125 16.5 15.125Z" fill="black"/>
</g>
<defs>
<clipPath id="clip0_26_19">
<rect width="33" height="33" fill="white"/>
</clipPath>
</defs>
</svg>
